<svg enable-background="new 0 0 206.2 156" viewBox="0 0 206.2 156" xmlns="http://www.w3.org/2000/svg"><g fill="#fff"><path d="m59.8 33.3-5.5.1c-3.7.4-7.8.1-11.5.5-3.7.3-7.6.3-11.4.7-2.5.2-5 .5-7.5.7s-4.7.3-7.2.5c-2.7.2-4.5.4-7.2-.5-2.2-.7-3-1.4-5.6-3.5-1.7-1.3-3.3-5.6-3.4-6.1-.1-.2-.4-2.5-.5-2.7-1.1-4.5 2.3-4.1 2.6-3.9l1 1c.5.8 1 1.8 1.4 2.2 1.4 1.4 9.2.9 10.6.9 7-.3 33.7-1.3 40.4-1.3 10.8 0 21.5-.7 31.8-1.2 4.7-.2 9.4-.4 14.1-.5s9.3 0 14.1.4c2.2.2 4.4.5 6.6.9 2.2.3 4.3.9 6.5 1.8 2.4 1 4.5 2.3 6.3 3.8s3.3 3.4 4.4 5.6c.2.4.4.8.6 1.2s.1.7-.3 1c-.2.2-.6.3-1 .3s-.8 0-1.2-.1c-1.1-.2-2-.6-2.9-1-2.2-.9-4.4-1.6-6.7-2.1s-4.6-.8-7-.9c-4.1-.3-8.1-.4-12.1-.4s-8 .1-12.1.3c-3.5.2-7 .3-10.5.6-3.5.2-7 .5-10.5.7h-.6c-.7 1.5-1.5 2.9-2.1 4.2-.7 1.3-1.3 2.7-2 4.1-3.7 7.6-7.4 15.1-11 22.6-3.6 7.4-7.2 15-10.8 22.6-2.9 6.2-5.7 12.4-8.3 18.6s-4.9 12.6-6.9 19.1c-.9 2.8-1.7 5.5-2.4 8.2s-1.3 5.5-1.7 8.3c-.2 1.5-.3 3.1-.4 4.7s-.3 3.1-.6 4.7c-.2 1-.4 2-.7 2.9-.3 1-.6 1.9-.9 2.8-.6 1.4-1.5 1.6-2.7.7-.7-.5-1.3-1.1-1.7-1.7-1.7-2.5-3-5-3.7-7.7-.7-2.6-1-5.4-.8-8.3.2-3.7.6-7.3 1.4-10.8s1.8-7 2.9-10.5c2.4-7.4 5.1-14.8 8-21.9 2.9-7.2 6.1-14.4 9.4-21.6 3-6.4 6-12.8 9.2-19.1 3.1-6.3 6.3-12.7 9.4-19.1z"/><path d="m94.3 92.2-1.5 1.4-10 10c-.4.4-.8.7-1.2 1s-.8.6-1.2 1c-1.7 1.3-3.8 1.6-6.2.8-3.3-1.2-5.5-3.3-6.6-6.3-.7-2.1-.9-4.5-.6-7.1.4-3.6 1.3-7.1 2.6-10.4s3-6.6 5.1-9.7c1.9-2.8 4-5.5 6.2-8.1s4.7-4.9 7.5-7.1c1.4-1.1 2.9-2.1 4.5-2.9 1.6-.9 3.4-1.5 5.3-2.1 3.2-.9 6.1-1 8.8-.3s5.3 2.1 7.7 4.2c1.7 1.3 2.9 3 3.6 4.9.5 1.2.5 2.3.1 3.3-.4 1.2-1.1 1.9-2 2s-1.8-.2-2.7-1.1c-.6-.5-.9-1.1-1.1-1.7-.1-.6-.2-1.2-.3-1.8-.2-1-.4-1.7-.7-1.9-.3-.3-1-.4-2.2-.5s-2.5-.1-3.6.2c-1.2.3-2.3.7-3.4 1.2-2.2 1-4.1 2.2-5.9 3.5-1.7 1.3-3.4 2.7-5.1 4.2-4 3.8-7.3 7.9-9.9 12.3s-4.5 9.2-5.7 14.3c-.1.4-.1.7-.2 1 0 .3-.1.6-.1 1v.7c0 .2 0 .5.1.9l1.4-1.1c3.2-2.8 6.1-5.7 8.8-8.8 2.7-3 5.4-6.1 8.1-9.3 1.3-1.7 2.8-3.4 4.4-5.2.2-.4.5-.7.7-.9.2-.3.5-.5.8-.7.7-.6 1.4-1.2 2-1.8s1.1-1.4 1.5-2.2c.7-1.1 1.7-1.6 3.2-1.3 1 .1 2 .4 2.9.8s1.7.9 2.5 1.6c1.2 1 1.6 2.1 1 3.3-1 2.4-2 4.7-2.9 7s-1.8 4.6-2.7 7c-.4 1-.8 1.9-1.1 2.8s-.6 1.9-.9 2.9l.5.2 1.2-1 20.2-18c.2-.1.5-.3.7-.6.2-.2.5-.4.9-.6.6-.4 1.2-.6 1.9-.4.2 0 .5.1.8.2.3.2.5.3.6.4.2.2.2.5 0 .8s-.3.5-.5.7c-.7.8-1.5 1.6-2.4 2.3-.8.7-1.7 1.5-2.5 2.3-2.9 2.9-5.8 5.8-8.7 8.7s-5.8 5.8-8.7 8.7l-6 6.3c-2.7 2.7-5.7 3-9 .9-1.3-.9-1.9-2.2-1.7-3.9.2-1 .3-2 .5-3s.3-2 .5-3c.3-.2.4-.9.7-2"/><path d="m137.5 90.3c1.1-.9 2.1-1.7 3.1-2.4 1-.8 1.9-1.6 2.8-2.4 1.7-1.6 3.5-3.2 5.2-4.8 1.7-1.7 3.4-3.3 5-4.8.7-.6 1.2-.9 1.6-.9.9.2 1.6.5 2 1 .2.2.2.4 0 .8s-.3.7-.5.8c-1 1.1-2 2.1-3 3.1s-2 2.1-3.1 3.1l-15 15.7c-.2.2-.4.5-.6.9-.1.3-.3.7-.4 1.1-1.4 4.9-2.8 9.8-4.2 14.7s-2.8 9.8-4.2 14.7c-.8 2.6-1.8 5.1-2.9 7.5s-2.3 4.8-3.7 7.2c-.6.9-1.2 1.9-1.9 2.8s-1.4 1.8-2.1 2.7c-3 3.3-6.9 4.9-11.6 4.8-4.8 0-7.4-2.3-7.8-6.8-.2-1.8-.1-3.5.1-5.3.2-1.7.7-3.5 1.4-5.3 1.1-3.2 2.5-6.2 4.2-9s3.6-5.6 5.8-8.2c1.9-2.3 3.9-4.7 5.9-7s4-4.6 6-6.9c.8-.9 1.5-2.1 1.9-3.4 1.2-4.7 2.3-9.3 3.4-13.8s2.5-9.1 4.2-13.6c1-2.6 2-5.1 3-7.7s2-5.1 3.1-7.7c.5-1.1 1.2-2.2 2-3.3 1.4-1.8 3.1-2.1 5.1-1 .8.4 1.5.9 2.1 1.4 1.2 1.1 1.6 2.3 1 3.7-.9 1.9-1.6 3.9-2 5.9s-.9 4-1.5 6.1c-.7 2.6-1.3 5.1-2 7.6s-1.3 5.1-2 7.6c-.1.2-.2.5-.4 1.1m-20.2 30.7c-.1 0-.2 0-.2-.1-.1 0-.2-.1-.3-.1l-3.5 4.8c-1.7 2.3-3.2 4.7-4.5 7.2-1.3 2.4-2.4 5-3.2 7.7-.7 2.5-1.1 4.9-1 7.2 0 .5 0 .9.1 1.4s.3 1 .7 1.5c.3-.4.6-.7.9-1s.5-.6.7-.9c.6-.9 1.2-1.7 1.7-2.6.6-.9 1.1-1.8 1.5-2.6 1.2-2.5 2.3-5 3.1-7.6s1.5-5.2 2.2-7.9zm22.6-72.1.9-3.3c.3-.9.7-1.7 1-2.7.3-.9.7-1.8 1.1-2.7.7-1.3 1.7-1.7 3.2-1.3 1.2.2 2.2.6 3 1.2s1.6 1.3 2.2 2.2c.9 1.1 1 2.3.2 3.5-.4.6-.8 1.3-1.2 2s-.7 1.4-.9 2.1c-.3.8-.6 1.6-.9 2.4-.2.8-.5 1.7-.6 2.5-.2.9-.8 1.2-1.6 1.2-.7 0-1.5-.2-2.3-.6s-1.5-1-2.1-1.7-1.1-1.5-1.5-2.3c-.3-.8-.5-1.6-.5-2.5"/><path d="m194.4 82.7c.4-.4.9-.9 1.3-1.3.5-.4.9-.9 1.3-1.4.8-.9 1.7-1.8 2.6-2.7s1.8-1.8 2.7-2.8c.7-.7 1.4-1 2.2-.8 1.8.2 2.2 1 1 2.3-.6.7-1.2 1.5-1.9 2.2s-1.3 1.4-2 2.1l-8.2 8.4c-.9 1-1.5 2.2-1.7 3.3-1.6 6.3-3.3 12.5-5 18.6-1.8 6.1-3.8 12.2-6.2 18.4-.7 1.7-1.4 3.4-2.1 5.2-.7 1.7-1.5 3.5-2.4 5.2-1 2-2.1 3.9-3.4 5.7s-2.7 3.5-4.3 5.2c-1.3 1.4-2.8 2.6-4.5 3.6s-3.5 1.6-5.6 1.9c-1.2.2-2.4.3-3.6.1-1.1-.2-2.2-.4-3.3-.8-1.9-.7-3.1-1.9-3.6-3.7-.8-2.7-.8-5.4 0-8 .7-1.9 1.6-3.9 2.4-5.8.9-1.9 1.9-3.8 3.1-5.7 2.4-4.1 5-8 7.8-11.8s5.8-7.6 8.9-11.4c1.3-1.7 2.8-3.4 4.4-5.2 1-1 1.6-2.1 1.9-3.4s.7-2.5 1-3.6.7-2.3 1.1-3.6v-.6c0-.2 0-.5.1-.9l-1.5 1.7c-2.3 2.9-4.6 5.6-6.9 8.1-.9 1-1.9 1.8-2.9 2.4s-2.3 1-3.7 1.2c-2.2.2-4.3-.1-6.2-.8-1.9-.8-3.2-2.3-3.9-4.5-.5-1.7-.9-3.4-1.1-5.1s-.3-3.4-.1-5.2c.5-5.1 1.4-10.1 2.7-14.9s3.1-9.6 5.2-14.5l1.7-3.1c.7-.8 1.5-1.3 2.4-1.3 2.4-.1 4.4.4 5.9 1.6.4.3.7.6.9.9s.2.8.1 1.4c-1.2 3.3-2.3 6.6-3.4 9.9s-2.2 6.6-3.2 9.9c-.9 2.6-1.6 5.2-2.1 7.8s-.8 5.3-1 7.9c-.2 1.9-.1 3.7.5 5.7l1.6-1.3c3.5-3.7 6.9-7.5 10.1-11.3s6.1-7.9 8.6-12.2c.5-.8.9-1.7 1.2-2.6s.7-1.8 1.1-2.7c.7-1.9 1.3-3.8 2.1-5.7.7-1.9 1.4-3.7 2.2-5.6.2-.4.3-.7.4-1s.3-.6.4-.9c.6-1 1.5-1.3 2.6-1.1 2 .4 3.8 1.3 5.4 2.8.4.5.6 1.1.7 1.7 0 .6 0 1.2-.2 1.8-.3 1.3-.5 2.5-.7 3.8s-.5 2.6-.9 3.8c-.7 3.9-1.4 7.7-2.2 11.2-.1.3-.1.7-.1 1.1.1 0 .1 0 .2.1 0 .2 0 .3.1.3m-21.9 31.2c-.1 0-.1 0-.2-.1 0 0-.1-.1-.2-.1-.3.4-.5.7-.8 1.1s-.6.7-.9 1.1l-4.7 6.7c-2.8 3.8-5.2 7.6-7.1 11.6-.8 1.7-1.6 3.4-2.3 5.1s-1.1 3.5-1.3 5.4c-.1 1-.1 1.9.1 2.9.1 1 .5 1.9 1.1 2.9l2.2-1.9c1.3-1.4 2.5-2.9 3.4-4.4 1-1.5 1.8-3.1 2.6-4.7 1.9-4.2 3.4-8.5 4.5-12.8 1-4.2 2.2-8.5 3.6-12.8"/><path d="m0 12.9 5.9-12.7c.1-.1.2-.2.3-.2h.2c.2 0 .3.1.3.2l5.8 12.7c.1.2 0 .5-.3.5h-1.6c-.3 0-.4-.1-.5-.4l-.9-2h-5.7l-.9 2c-.1.2-.2.4-.5.4h-1.7c-.3 0-.5-.2-.4-.5m8.2-4-1.9-4.2-1.9 4.2z"/><path d="m13.5 11.6.7-1.2c.2-.3.5-.3.6-.1.1.1 1.6 1.2 2.9 1.2 1 0 1.7-.6 1.7-1.5 0-1-.8-1.6-2.4-2.3-1.8-.7-3.6-1.9-3.6-4.1 0-1.7 1.2-3.6 4.3-3.6 1.9 0 3.4 1 3.8 1.3.2.1.2.4.1.6l-.7 1.1c-.2.2-.4.4-.7.2-.2-.1-1.6-1-2.6-1-1.1 0-1.7.7-1.7 1.3 0 .9.7 1.5 2.2 2.1 1.8.7 4 1.8 4 4.3 0 1.9-1.7 3.7-4.4 3.7-2.4 0-3.8-1.1-4.2-1.5 0-.1-.1-.2 0-.5"/><path d="m24.6.5c0-.2.2-.4.4-.4h7.7c.2 0 .4.2.4.4v1.6c0 .2-.2.4-.4.4h-5.7v3.1h4.7c.2 0 .4.2.4.4v1.6c0 .2-.2.4-.4.4h-4.7v3.3h5.6c.2 0 .4.2.4.4v1.6c0 .2-.2.4-.4.4h-7.7c-.2 0-.4-.2-.4-.4v-12.8z"/><path d="m41.5 0c1.7 0 3.3.7 4.6 1.8.2.2.2.4 0 .5l-1.2 1.2c-.2.2-.3.2-.5 0-.8-.7-1.8-1.1-2.9-1.1-2.4 0-4.2 2-4.2 4.4 0 2.3 1.9 4.3 4.3 4.3 1.1 0 1.9-.3 2.3-.5v-1.5h-1.5c-.2 0-.4-.2-.4-.3v-1.6c0-.2.2-.4.4-.4h3.6c.2 0 .3.2.3.4v4.8c0 .2-.1.2-.2.3 0 0-1.9 1.2-4.7 1.2-3.8 0-6.8-3-6.8-6.8.1-3.7 3.1-6.7 6.9-6.7"/><path d="m48.9.5c0-.2.2-.4.4-.4h1.8c.2 0 .4.2.4.4v7.7c0 1.6 1.1 2.9 2.7 2.9s2.8-1.3 2.8-2.9v-7.7c0-.2.2-.4.4-.4h1.8c.2 0 .4.2.4.4v7.9c0 2.9-2.3 5.2-5.3 5.2s-5.3-2.3-5.3-5.2v-7.9z"/><path d="m62.7.5c0-.2.2-.4.4-.4h5.4c2.3 0 4.1 1.8 4.1 4.1 0 1.7-1.2 3.2-2.8 3.8l2.6 4.8c.1.2 0 .5-.3.5h-2c-.2 0-.3-.1-.3-.2l-2.5-5h-2.1v4.8c0 .2-.2.4-.4.4h-1.7c-.2 0-.4-.2-.4-.4zm5.6 5.7c1 0 1.9-.9 1.9-1.9s-.9-1.8-1.9-1.8h-3.1v3.8h3.1z"/><path d="m73.6 12.9 5.9-12.7c0-.1.1-.2.3-.2h.2c.2 0 .3.1.3.2l5.8 12.7c.1.2 0 .5-.3.5h-1.6c-.3 0-.4-.1-.5-.4l-.9-2h-5.8l-.9 2c-.1.2-.2.4-.5.4h-1.6c-.4 0-.5-.2-.4-.5m8.2-4-1.9-4.2h-.1l-1.8 4.2z"/><path d="m87.8.5c0-.2.2-.4.3-.4h4.5c3.7 0 6.6 3 6.6 6.6 0 3.7-3 6.6-6.6 6.6h-4.5c-.2 0-.3-.2-.3-.4zm4.6 10.6c2.5 0 4.3-1.9 4.3-4.3 0-2.5-1.8-4.3-4.3-4.3h-2.2v8.6z"/><path d="m107.7 0c3.8 0 6.8 3 6.8 6.8s-3 6.8-6.8 6.8-6.8-3-6.8-6.8 3-6.8 6.8-6.8m0 11.2c2.4 0 4.4-1.9 4.4-4.3s-2-4.4-4.4-4.4-4.3 2-4.3 4.4c-.1 2.3 1.9 4.3 4.3 4.3"/><path d="m116.9.5c0-.2.2-.4.4-.4h5.4c2.3 0 4.1 1.8 4.1 4.1 0 1.7-1.2 3.2-2.8 3.8l2.6 4.8c.1.2 0 .5-.3.5h-2c-.2 0-.3-.1-.3-.2l-2.5-5h-2.1v4.8c0 .2-.2.4-.4.4h-1.7c-.2 0-.4-.2-.4-.4zm5.6 5.7c1 0 1.9-.9 1.9-1.9s-.9-1.8-1.9-1.8h-3.1v3.8h3.1z"/><path d="m127.8 12.9 5.9-12.7c.1-.1.2-.2.3-.2h.2c.2 0 .3.1.3.2l5.8 12.7c.1.2 0 .5-.3.5h-1.6c-.3 0-.4-.1-.5-.4l-.9-2h-5.7l-.9 2c-.1.2-.2.4-.5.4h-1.6c-.4 0-.6-.2-.5-.5m8.2-4-1.9-4.2h-.1l-1.9 4.2z"/></g></svg>