<svg enable-background="new 0 0 80 80" viewBox="0 0 80 80" xmlns="http://www.w3.org/2000/svg"><path d="m66.3 31.5h-4.8l-1.5-3.7v-.1c-1.6-4.6-3.8-8.9-9.4-8.9h-21.4c-5.7 0-7.8 4.4-9.4 8.9l-1.6 3.8h-4.5c-.4 0-.8.3-.8.8v.1l.4 2.3c.1.4.4.6.8.6h2.5l-1.4 3.4c-.7 1.1-1 2.3-1.1 3.6v3.4c0 .5.1 1 .2 1.5-.1.3-.2.6-.2 1v10.2c0 1.5 1.2 2.7 2.7 2.7h5.6c1.5 0 2.7-1.2 2.7-2.7v-5.1h29.4v5.1c0 1.5 1.2 2.7 2.7 2.7h5.3c1.5 0 2.7-1.2 2.7-2.7v-10.1c0-.3-.1-.7-.2-1 .1-.5.2-1 .2-1.5v-3.4c0-1-.2-2-.6-2.8 0-.2-.1-.4-.2-.7l-1.4-3.5h2.8c.4 0 .7-.3.8-.6l.4-2.3c.1-.4-.2-.8-.6-.9 0-.1-.1-.1-.1-.1m-43.2-2.7c1.8-5 3.2-6.5 6.1-6.5h21.4c2.9 0 4.4 1.7 6.1 6.5l3.2 6.6c-1.1-.4-2.3-.6-3.4-.6h-33.6c-1.1 0-2.1.2-3.1.5zm2.8 18.3h-5.9c-1.1 0-1.9-.9-1.9-1.9 0-1.1.9-1.9 1.9-1.9h5.9c1.1 0 1.9.9 1.9 1.9s-.8 1.9-1.9 1.9m20.9-.4h-13.8c-.7 0-1.2-.5-1.2-1.2s.5-1.2 1.2-1.2h13.8c.7 0 1.2.5 1.2 1.2 0 .6-.5 1.2-1.2 1.2m12.4.4h-5.9c-1.1 0-1.9-.9-1.9-1.9s.9-1.9 1.9-1.9h5.9c1.1 0 1.9.9 1.9 1.9s-.8 1.9-1.9 1.9" fill="#fff"/></svg>