<svg enable-background="new 0 0 80 80" viewBox="0 0 80 80" xmlns="http://www.w3.org/2000/svg"><g fill="#fff"><path d="m50.6 23.9v-6.5c0-.8-.7-1.5-1.5-1.5h-5.6c-.8 0-1.4.7-1.4 1.5v4.6c-2.2-2-4.4-3.9-6.5-5.9-.9-.7-1.3-.7-2.1 0-7.1 6.3-14.3 12.6-21.5 19-.5.5-.9.9-1.5 1.3h3.6v2.4c0 6.5.1 13 0 19.5 0 .9.3 1.2 1.2 1.2 3.8-.1 7.6-.1 11.4 0 .9 0 1.1-.3 1.1-1.1-.1-3.3 0-6.6 0-9.9 0-1.9 1.1-2.9 2.9-2.9h3.5c-.2-.9-.4-1.7-.5-2.6h-.1c-.3-1.8-.4-3.6-.4-5.5v-1l.2-2 2-.5 1-.2c1.3-.4 2.3-1 2.8-1.7.7-.8 1.2-1.9 1.2-3.1v-3.2l2.1-.5 1-.2c.2-.1 1.5-.4 3.3-.7 1.2-.1 2.5-.4 3.8-.5"/><path d="m69.4 37.6c.1.2.2 4.6-1.6 10-1.7 5-5.6 12-14.3 16.5l-.6.3-.6-.3c-8.8-4.5-12.7-11.4-14.4-16.5-1.9-5.4-1.7-9.8-1.6-10v-1l1-.2c6-1.5 6.1-7.1 6.1-7.4v-1.1l1-.2c.2-.1 5.2-1.2 8.5-1.2s8.2 1.1 8.5 1.2l1 .2v1.1c0 .2.2 5.9 6.1 7.4l1 .2zm-16.6 24.3c5.9-3.2 10-8.1 12.2-14.4.2-.4.3-.8.4-1.3h-12.6zm-6.9-31.9c-.4 2.7-2.2 6.9-7.1 8.5.1 2.3.5 4.5 1.1 6.7h12.7v-16.2c-2.1 0-5.2.6-6.7 1"/></g></svg>